<svg xmlns="http://www.w3.org/2000/svg" width="41" height="53" viewBox="0 0 41 53">
  <g id="Group_1" data-name="Group 1" transform="translate(-95 -55)">
    <text id="Pawful" transform="translate(97 98)" font-size="12" font-family="Roboto-Regular, Roboto"><tspan x="0" y="0">Pawful</tspan></text>
    <path id="Icon_awesome-heart" data-name="Icon awesome-heart" d="M32.505,4.4a9.615,9.615,0,0,0-13.12.956L18,6.785,16.615,5.358A9.615,9.615,0,0,0,3.495,4.4,10.1,10.1,0,0,0,2.8,19.02L16.4,33.068a2.2,2.2,0,0,0,3.185,0L33.195,19.02A10.09,10.09,0,0,0,32.505,4.4Z" transform="translate(97.001 52.752)" fill="#ff7474"/>
    <path id="Icon_awesome-paw" data-name="Icon awesome-paw" d="M3.68,2.814c-1.141,0-2.76,1.8-2.76,2.935,0,.511.385.817,1.031.817.7,0,1.166-.368,1.729-.368s1.033.368,1.729.368c.646,0,1.031-.306,1.031-.817C6.44,4.613,4.821,2.814,3.68,2.814ZM1.563,2.629A.935.935,0,0,0,.534,1.894.835.835,0,0,0,.047,3a.935.935,0,0,0,1.029.735.835.835,0,0,0,.487-1.1Zm1.218-.3c.445-.119.667-.732.5-1.368S2.609-.1,2.164.02s-.667.732-.5,1.368S2.336,2.444,2.781,2.325Zm4.045-.43A.935.935,0,0,0,5.8,2.629a.835.835,0,0,0,.487,1.1A.935.935,0,0,0,7.313,3,.835.835,0,0,0,6.826,1.895Zm-2.246.43c.445.119.943-.3,1.113-.936S5.64.14,5.2.02s-.943.3-1.113.936.052,1.249.5,1.368Z" transform="translate(112.643 63.266) rotate(30)" fill="#fff"/>
    <path id="Icon_awesome-paw-2" data-name="Icon awesome-paw" d="M3.68,2.814c-1.141,0-2.76,1.8-2.76,2.935,0,.511.385.817,1.031.817.7,0,1.166-.368,1.729-.368s1.033.368,1.729.368c.646,0,1.031-.306,1.031-.817C6.44,4.613,4.821,2.814,3.68,2.814ZM1.563,2.629A.935.935,0,0,0,.534,1.894.835.835,0,0,0,.047,3a.935.935,0,0,0,1.029.735.835.835,0,0,0,.487-1.1Zm1.218-.3c.445-.119.667-.732.5-1.368S2.609-.1,2.164.02s-.667.732-.5,1.368S2.336,2.444,2.781,2.325Zm4.045-.43A.935.935,0,0,0,5.8,2.629a.835.835,0,0,0,.487,1.1A.935.935,0,0,0,7.313,3,.835.835,0,0,0,6.826,1.895Zm-2.246.43c.445.119.943-.3,1.113-.936S5.64.14,5.2.02s-.943.3-1.113.936.052,1.249.5,1.368Z" transform="translate(118.643 55.266) rotate(30)" fill="#fff"/>
    <path id="Icon_awesome-paw-3" data-name="Icon awesome-paw" d="M3.68,2.814c-1.141,0-2.76,1.8-2.76,2.935,0,.511.385.817,1.031.817.7,0,1.166-.368,1.729-.368s1.033.368,1.729.368c.646,0,1.031-.306,1.031-.817C6.44,4.613,4.821,2.814,3.68,2.814ZM1.563,2.629A.935.935,0,0,0,.534,1.894.835.835,0,0,0,.047,3a.935.935,0,0,0,1.029.735.835.835,0,0,0,.487-1.1Zm1.218-.3c.445-.119.667-.732.5-1.368S2.609-.1,2.164.02s-.667.732-.5,1.368S2.336,2.444,2.781,2.325Zm4.045-.43A.935.935,0,0,0,5.8,2.629a.835.835,0,0,0,.487,1.1A.935.935,0,0,0,7.313,3,.835.835,0,0,0,6.826,1.895Zm-2.246.43c.445.119.943-.3,1.113-.936S5.64.14,5.2.02s-.943.3-1.113.936.052,1.249.5,1.368Z" transform="translate(124.643 63.266) rotate(30)" fill="#fff"/>
    <path id="Icon_awesome-paw-4" data-name="Icon awesome-paw" d="M3.68,2.814c-1.141,0-2.76,1.8-2.76,2.935,0,.511.385.817,1.031.817.7,0,1.166-.368,1.729-.368s1.033.368,1.729.368c.646,0,1.031-.306,1.031-.817C6.44,4.613,4.821,2.814,3.68,2.814ZM1.563,2.629A.935.935,0,0,0,.534,1.894.835.835,0,0,0,.047,3a.935.935,0,0,0,1.029.735.835.835,0,0,0,.487-1.1Zm1.218-.3c.445-.119.667-.732.5-1.368S2.609-.1,2.164.02s-.667.732-.5,1.368S2.336,2.444,2.781,2.325Zm4.045-.43A.935.935,0,0,0,5.8,2.629a.835.835,0,0,0,.487,1.1A.935.935,0,0,0,7.313,3,.835.835,0,0,0,6.826,1.895Zm-2.246.43c.445.119.943-.3,1.113-.936S5.64.14,5.2.02s-.943.3-1.113.936.052,1.249.5,1.368Z" transform="translate(118.643 71.266) rotate(30)" fill="#fff"/>
    <text id="Dog_shelter" data-name="Dog shelter" transform="translate(95 106)" font-size="8" font-family="Roboto-Regular, Roboto"><tspan x="0" y="0">Dog Shelter</tspan></text>
  </g>
</svg>
